<svg width="122.715820" height="34.793945" viewBox="0 0 122.716 34.7939" fill="none" xmlns="http://www.w3.org/2000/svg" xmlns:xlink="http://www.w3.org/1999/xlink">
	<desc>
			Created with Pixso.
	</desc>
	<defs/>
	<path id="Vector" d="M9.43 10.67L9.43 15.13L16.91 15.13L16.91 19.09L9.43 19.09L9.43 24.59L18.08 24.59L18.08 28.55L5.43 28.55L5.43 10.64L9.52 10.64L9.52 6.71L18.08 6.71L18.08 10.67L9.43 10.67Z" fill="#FFFFFF" fill-opacity="1.000000" fill-rule="nonzero"/>
	<path id="Vector" d="M26.51 12.71C22.59 12.71 19.75 15.1 19.75 20.34L19.75 28.55L23.76 28.55L23.76 20.34C23.76 17.83 24.58 16.67 26.51 16.67C28.45 16.67 29.27 17.83 29.27 20.34L29.27 28.55L33.27 28.55L33.27 20.34C33.27 15.1 30.44 12.71 26.51 12.71Z" fill="#FFFFFF" fill-opacity="1.000000" fill-rule="nonzero"/>
	<path id="Vector" d="M44.78 12.96L41.24 23.22L37.75 12.96L33.57 12.96L39.25 28.55L43.24 28.55L48.95 12.96L44.78 12.96Z" fill="#FFFFFF" fill-opacity="1.000000" fill-rule="nonzero"/>
	<path id="Vector" d="M91.39 21.16C91.39 23.67 90.57 24.83 88.64 24.83C86.7 24.83 85.88 23.67 85.88 21.16L85.88 12.96L81.88 12.96L81.88 21.16C81.88 26.4 84.71 28.79 88.64 28.79C89.58 28.79 90.48 28.61 91.36 28.24L91.36 28.33C91.36 29.87 90.49 30.83 88.64 30.83C87.56 30.83 87.05 30.48 86.43 29.7L81.98 29.7C82.54 31.26 83.39 32.49 84.54 33.42C85.7 34.33 87.06 34.79 88.64 34.79C90.6 34.79 92.22 34.12 93.49 32.79C94.77 31.46 95.4 29.78 95.4 27.77L95.4 12.96L91.39 12.96L91.39 21.16Z" fill="#FFFFFF" fill-opacity="1.000000" fill-rule="nonzero"/>
	<path id="Vector" d="M103.07 6.74L99.07 6.74L99.07 12.96L96.8 12.96L96.8 16.91L99.07 16.91L99.07 21.19C99.07 23.7 99.68 25.56 100.9 26.79C102.11 28.03 103.76 28.64 105.83 28.64L105.83 24.68C103.86 24.68 103.07 23.69 103.07 21.19L103.07 16.91L105.83 16.91L105.83 12.96L103.07 12.96L103.07 6.74L103.07 6.74Z" fill="#FFFFFF" fill-opacity="1.000000" fill-rule="nonzero"/>
	<path id="Vector" d="M122.7 20.4C122.55 15.44 118.49 12.71 114.68 12.71C113.24 12.71 111.93 13.08 110.73 13.82C109.51 14.57 108.58 15.54 107.91 16.78C107.23 18.01 106.89 19.35 106.89 20.78C106.89 22.23 107.23 23.57 107.94 24.8C108.64 26.03 109.6 26.99 110.82 27.71C112.03 28.42 113.36 28.79 114.82 28.79C116.42 28.79 117.88 28.35 119.18 27.45C120.48 26.57 121.46 25.41 122.09 23.96L117.34 23.93C116.62 24.53 115.73 24.83 114.68 24.83C112.9 24.83 111.57 23.87 111.19 22.33L122.58 22.33C122.69 21.69 122.73 21.06 122.7 20.4ZM111.19 19.09C111.84 17.58 113.08 16.67 114.82 16.67C115.58 16.67 116.3 16.88 116.98 17.32C117.64 17.77 118.12 18.36 118.43 19.09L111.19 19.09Z" fill="#FFFFFF" fill-opacity="1.000000" fill-rule="nonzero"/>
	<path id="Vector" d="M63.04 19.87C63.08 20.18 63.11 20.48 63.11 20.76C63.11 24.32 60.26 27.21 56.76 27.21C53.27 27.21 50.42 24.32 50.42 20.76C50.42 18 52.15 15.56 54.73 14.67C54.84 14.74 54.97 14.78 55.1 14.78C55.49 14.78 55.8 14.46 55.8 14.07C55.8 13.68 55.49 13.36 55.1 13.36C54.75 13.36 54.45 13.63 54.41 13.99C51.58 15 49.68 17.72 49.68 20.77C49.68 24.73 52.86 27.96 56.76 27.96C60.67 27.96 63.85 24.73 63.85 20.77C63.85 20.45 63.82 20.11 63.78 19.78C63.94 19.64 64.03 19.44 64.03 19.23C64.03 18.84 63.72 18.52 63.33 18.52C62.94 18.52 62.63 18.84 62.63 19.23C62.63 19.51 62.79 19.76 63.04 19.87Z" fill="#FFFFFF" fill-opacity="1.000000" fill-rule="nonzero"/>
	<path id="Vector" d="M64.99 19.64C64.59 19.64 64.27 19.97 64.27 20.37C64.27 20.62 64.41 20.86 64.62 20.99C64.51 25.28 61 28.76 56.76 28.76C52.42 28.76 48.89 25.18 48.89 20.77C48.89 16.63 52.06 13.15 56.11 12.81C56.25 12.99 56.45 13.09 56.67 13.09C57.06 13.09 57.38 12.76 57.38 12.36C57.38 11.96 57.06 11.64 56.67 11.64C56.4 11.64 56.15 11.8 56.03 12.05C53.9 12.23 51.93 13.21 50.46 14.8C48.96 16.43 48.14 18.55 48.14 20.77C48.14 25.6 52.01 29.53 56.76 29.53C59.04 29.53 61.19 28.63 62.81 27C64.42 25.39 65.32 23.25 65.37 20.97C65.58 20.84 65.7 20.61 65.7 20.37C65.7 19.97 65.38 19.64 64.99 19.64Z" fill="#FFFFFF" fill-opacity="1.000000" fill-rule="nonzero"/>
	<path id="Vector" d="M56.79 14.99C53.68 14.99 51.15 17.56 51.15 20.73C51.15 23.89 53.68 26.46 56.79 26.46C59.9 26.46 62.44 23.89 62.44 20.73C62.44 17.56 59.9 14.99 56.79 14.99ZM56.79 25.19C54.37 25.19 52.39 23.19 52.39 20.73C52.39 18.26 54.37 16.26 56.79 16.26C59.22 16.26 61.19 18.26 61.19 20.73C61.19 23.19 59.22 25.19 56.79 25.19Z" fill="#FFFFFF" fill-opacity="1.000000" fill-rule="nonzero"/>
	<path id="Vector" d="M59.69 20.77C59.69 19.18 58.42 17.89 56.86 17.89C55.29 17.89 54.02 19.18 54.02 20.77C54.02 22.36 55.29 23.65 56.86 23.65C58.42 23.65 59.69 22.36 59.69 20.77Z" fill="#FF693B" fill-opacity="1.000000" fill-rule="nonzero"/>
	<path id="Vector" d="M4.07 5.1L8.18 5.1L8.18 9.29L4.07 9.29L4.07 5.1Z" fill="#FF693B" fill-opacity="1.000000" fill-rule="evenodd"/>
	<path id="Vector" d="M0 1.39L3.24 1.39L3.24 4.68L0 4.68L0 1.39Z" fill="#FF693B" fill-opacity="1.000000" fill-rule="evenodd"/>
	<path id="Vector" d="M5.96 0L8.13 0L8.13 2.2L5.96 2.2L5.96 0Z" fill="#FF693B" fill-opacity="1.000000" fill-rule="evenodd"/>
	<path id="Vector" d="M73.64 14.09C72.31 14.09 71.15 14.44 70.16 15.14L70.16 6.71L66.53 6.71L66.53 21.32C66.53 22.64 66.86 23.84 67.49 24.95C68.13 26.06 68.99 26.94 70.08 27.58C71.17 28.22 72.36 28.55 73.64 28.55C74.92 28.55 76.12 28.22 77.21 27.58C78.31 26.94 79.17 26.06 79.8 24.95C80.44 23.84 80.76 22.64 80.76 21.32C80.84 17.4 77.47 14 73.64 14.09ZM76.19 23.94C75.53 24.63 74.68 24.99 73.67 24.99C72.64 24.99 71.79 24.63 71.12 23.94C70.45 23.24 70.11 22.36 70.11 21.32C70.11 20.28 70.45 19.4 71.12 18.7C71.79 18 72.64 17.65 73.67 17.65C74.68 17.65 75.53 17.99 76.19 18.69C76.85 19.39 77.17 20.27 77.17 21.32C77.17 22.37 76.85 23.24 76.19 23.94Z" fill="#FFFFFF" fill-opacity="1.000000" fill-rule="nonzero"/>
</svg>
